<?xml version="1.0" encoding="UTF-8" standalone="no"?>
<!DOCTYPE svg PUBLIC "-//W3C//DTD SVG 1.1//EN" "http://www.w3.org/Graphics/SVG/1.1/DTD/svg11.dtd">
<!-- Created with Vectornator (http://vectornator.io/) -->
<svg height="100%" stroke-miterlimit="10" style="fill-rule:nonzero;clip-rule:evenodd;stroke-linecap:round;stroke-linejoin:round;" version="1.1" viewBox="0 0 978.243 197.703" width="100%" xml:space="preserve" xmlns="http://www.w3.org/2000/svg" xmlns:vectornator="http://vectornator.io" xmlns:xlink="http://www.w3.org/1999/xlink">
<defs>
<linearGradient gradientTransform="matrix(1001.02 0 0 1001.02 0 64.7283)" gradientUnits="userSpaceOnUse" id="LinearGradient" x1="0" x2="1" y1="0" y2="0">
<stop offset="0.125804" stop-color="#c0ddf4"/>
<stop offset="0.62694" stop-color="#52acf2"/>
</linearGradient>
</defs>
<g id="Untitled" vectornator:layerName="Untitled">
<g fill="url(#LinearGradient)" opacity="1" stroke="none" vectornator:layerName="Text 1">
<path d="M7.88546 154.738L34.8114 20.1086L59.8141 20.1086L37.1194 133.582L107.512 133.582L103.28 154.738L7.88546 154.738Z"/>
<path d="M120.782 154.738L141.169 52.0351L165.21 52.0351L144.823 154.738L120.782 154.738ZM158.479 35.1102C154.247 35.1102 150.817 33.7959 148.189 31.1674C145.56 28.539 144.246 25.3655 144.246 21.6472C144.246 17.2877 145.721 13.6335 148.67 10.6845C151.619 7.73544 155.53 6.26092 160.402 6.26092C164.761 6.26092 168.287 7.51106 170.98 10.0113C173.672 12.5116 175.019 15.5568 175.019 19.1469C175.019 23.891 173.512 27.7376 170.499 30.6866C167.486 33.6357 163.479 35.1102 158.479 35.1102Z"/>
<path d="M217.908 193.396C208.163 193.396 199.188 192.21 190.982 189.838C182.776 187.466 175.724 183.972 169.826 179.356L182.327 161.278C186.302 164.739 191.559 167.528 198.098 169.644C204.637 171.759 211.753 172.817 219.447 172.817C230.73 172.817 239.256 170.349 245.026 165.413C250.796 160.476 254.643 153.072 256.566 143.199L260.797 122.043L267.144 100.309L270.991 77.0377L275.799 52.0351L298.686 52.0351L281.376 139.16C277.53 158.264 270.35 172.08 259.836 180.607C249.322 189.133 235.346 193.396 217.908 193.396ZM223.87 150.123C215.023 150.123 207.138 148.424 200.214 145.026C193.29 141.628 187.841 136.756 183.866 130.409C179.891 124.062 177.904 116.465 177.904 107.618C177.904 99.5402 179.346 92.0714 182.231 85.2117C185.116 78.352 189.155 72.3578 194.348 67.229C199.541 62.1002 205.695 58.0934 212.811 55.2085C219.927 52.3236 227.717 50.8811 236.179 50.8811C243.616 50.8811 250.476 52.1953 256.758 54.8238C263.041 57.4523 268.042 61.6835 271.76 67.5175C275.478 73.3515 277.209 81.0125 276.953 90.5007C276.696 101.784 274.453 111.945 270.221 120.985C265.99 130.024 259.964 137.14 252.142 142.333C244.321 147.526 234.897 150.123 223.87 150.123ZM229.255 129.736C236.179 129.736 242.27 128.229 247.527 125.216C252.784 122.203 256.919 118.036 259.932 112.715C262.945 107.394 264.451 101.399 264.451 94.732C264.451 87.4235 262.079 81.6857 257.335 77.5186C252.591 73.3515 245.988 71.2679 237.525 71.2679C230.602 71.2679 224.511 72.7745 219.254 75.7876C213.997 78.8008 209.83 82.9358 206.753 88.1928C203.676 93.4498 202.137 99.476 202.137 106.272C202.137 113.58 204.541 119.318 209.349 123.485C214.158 127.652 220.793 129.736 229.255 129.736Z"/>
<path d="M386.195 50.8811C395.042 50.8811 402.511 52.6762 408.602 56.2663C414.692 59.8564 419.019 65.1454 421.584 72.1334C424.148 79.1213 424.405 87.6799 422.353 97.8092L411.006 154.738L386.965 154.738L398.12 98.3862C399.786 90.052 399.017 83.5449 395.812 78.8649C392.606 74.1849 386.772 71.8449 378.31 71.8449C369.463 71.8449 362.154 74.281 356.384 79.1534C350.615 84.0257 346.704 91.4624 344.652 101.463L333.882 154.738L309.841 154.738L338.306 12.0308L362.347 12.0308L348.499 81.269L343.498 72.0372C348.371 64.7287 354.493 59.3756 361.866 55.9778C369.238 52.58 377.348 50.8811 386.195 50.8811Z"/>
<path d="M480.051 156.085C473.384 156.085 467.646 154.642 462.838 151.757C458.03 148.872 454.568 144.769 452.452 139.448C450.337 134.127 449.984 127.812 451.395 120.504L469.666 29.3403L493.707 29.3403L475.436 120.312C474.666 125.056 475.179 128.902 476.974 131.851C478.769 134.8 482.167 136.275 487.168 136.275C489.476 136.275 491.816 135.922 494.188 135.217C496.56 134.512 498.707 133.518 500.631 132.236L504.862 149.93C501.272 152.238 497.297 153.841 492.937 154.738C488.578 155.636 484.283 156.085 480.051 156.085ZM444.663 71.2679L448.317 52.0351L516.786 52.0351L512.94 71.2679L444.663 71.2679Z"/>
<path d="M563.522 82.0383L630.645 82.0383L626.413 103.194L559.291 103.194L563.522 82.0383ZM551.021 154.738L526.018 154.738L552.944 20.1086L651.224 20.1086L646.992 41.0723L573.715 41.0723L551.021 154.738Z"/>
<path d="M694.113 156.085C684.112 156.085 675.361 154.193 667.86 150.411C660.359 146.629 654.557 141.372 650.454 134.64C646.351 127.909 644.3 119.991 644.3 110.888C644.3 99.3478 646.928 89.0583 652.185 80.0188C657.442 70.9794 664.655 63.8633 673.822 58.6704C682.99 53.4775 693.472 50.8811 705.268 50.8811C715.397 50.8811 724.212 52.7082 731.713 56.3624C739.214 60.0167 745.016 65.2096 749.119 71.941C753.222 78.6725 755.273 86.6542 755.273 95.8859C755.273 107.297 752.645 117.555 747.388 126.658C742.131 135.762 734.919 142.942 725.751 148.199C716.583 153.456 706.037 156.085 694.113 156.085ZM695.652 135.506C702.575 135.506 708.666 133.871 713.923 130.601C719.18 127.332 723.347 122.812 726.424 117.042C729.501 111.272 731.04 104.605 731.04 97.0399C731.04 89.0903 728.668 82.8076 723.924 78.1917C719.18 73.5758 712.512 71.2679 703.922 71.2679C697.126 71.2679 691.068 72.9027 685.747 76.1723C680.426 79.4418 676.226 83.9616 673.149 89.7314C670.072 95.5013 668.533 102.169 668.533 109.734C668.533 117.811 670.905 124.126 675.649 128.678C680.393 133.23 687.061 135.506 695.652 135.506Z"/>
<path d="M818.165 156.085C808.164 156.085 799.413 154.193 791.912 150.411C784.411 146.629 778.609 141.372 774.506 134.64C770.403 127.909 768.352 119.991 768.352 110.888C768.352 99.3478 770.98 89.0583 776.237 80.0188C781.494 70.9794 788.706 63.8633 797.874 58.6704C807.042 53.4775 817.524 50.8811 829.32 50.8811C839.449 50.8811 848.264 52.7082 855.765 56.3624C863.266 60.0167 869.068 65.2096 873.171 71.941C877.274 78.6725 879.325 86.6542 879.325 95.8859C879.325 107.297 876.697 117.555 871.44 126.658C866.183 135.762 858.97 142.942 849.803 148.199C840.635 153.456 830.089 156.085 818.165 156.085ZM819.703 135.506C826.627 135.506 832.718 133.871 837.975 130.601C843.231 127.332 847.399 122.812 850.476 117.042C853.553 111.272 855.092 104.605 855.092 97.0399C855.092 89.0903 852.72 82.8076 847.976 78.1917C843.231 73.5758 836.564 71.2679 827.973 71.2679C821.178 71.2679 815.119 72.9027 809.798 76.1723C804.477 79.4418 800.278 83.9616 797.201 89.7314C794.124 95.5013 792.585 102.169 792.585 109.734C792.585 117.811 794.957 124.126 799.701 128.678C804.445 133.23 811.113 135.506 819.703 135.506Z"/>
<path d="M929.907 156.085C923.24 156.085 917.502 154.642 912.694 151.757C907.886 148.872 904.424 144.769 902.308 139.448C900.193 134.127 899.84 127.812 901.251 120.504L919.522 29.3403L943.563 29.3403L925.292 120.312C924.522 125.056 925.035 128.902 926.83 131.851C928.625 134.8 932.023 136.275 937.024 136.275C939.332 136.275 941.672 135.922 944.044 135.217C946.416 134.512 948.563 133.518 950.487 132.236L954.718 149.93C951.128 152.238 947.153 153.841 942.793 154.738C938.434 155.636 934.139 156.085 929.907 156.085ZM894.519 71.2679L898.173 52.0351L966.642 52.0351L962.796 71.2679L894.519 71.2679Z"/>
</g>
</g>
</svg>
