<?xml version="1.0" encoding="UTF-8" standalone="no"?>
<!DOCTYPE svg PUBLIC "-//W3C//DTD SVG 1.1//EN" "http://www.w3.org/Graphics/SVG/1.1/DTD/svg11.dtd">
<!-- Created with Vectornator (http://vectornator.io/) -->
<svg height="100%" stroke-miterlimit="10" style="fill-rule:nonzero;clip-rule:evenodd;stroke-linecap:round;stroke-linejoin:round;" version="1.1" viewBox="0 0 1008 195.901" width="100%" xml:space="preserve" xmlns="http://www.w3.org/2000/svg" xmlns:vectornator="http://vectornator.io" xmlns:xlink="http://www.w3.org/1999/xlink">
<defs>
<linearGradient gradientTransform="matrix(1008.13 0 0 1008.13 0 62.6426)" gradientUnits="userSpaceOnUse" id="LinearGradient" x1="0" x2="1" y1="0" y2="0">
<stop offset="0.124738" stop-color="#359cee"/>
<stop offset="0.626398" stop-color="#356de5"/>
</linearGradient>
</defs>
<g id="Untitled" vectornator:layerName="Untitled">
<g fill="url(#LinearGradient)" opacity="1" stroke="none" vectornator:layerName="Text 1">
<path d="M7.94151 153.292L35.0589 17.7057L60.2393 17.7057L37.3832 131.986L108.276 131.986L104.014 153.292L7.94151 153.292Z"/>
<path d="M121.641 153.292L142.172 49.8591L166.384 49.8591L145.853 153.292L121.641 153.292ZM159.605 32.8139C155.344 32.8139 151.889 31.4904 149.242 28.8432C146.595 26.196 145.272 23 145.272 19.2553C145.272 14.8648 146.757 11.1846 149.727 8.21463C152.697 5.24463 156.635 3.75964 161.542 3.75964C165.932 3.75964 169.483 5.01866 172.195 7.5367C174.907 10.0547 176.263 13.1216 176.263 16.7372C176.263 21.515 174.746 25.389 171.711 28.3589C168.676 31.3289 164.641 32.8139 159.605 32.8139Z"/>
<path d="M219.457 192.225C209.643 192.225 200.604 191.031 192.34 188.642C184.075 186.253 176.973 182.734 171.033 178.085L183.623 159.878C187.626 163.365 192.921 166.173 199.506 168.304C206.092 170.435 213.259 171.5 221.006 171.5C232.37 171.5 240.957 169.014 246.768 164.043C252.579 159.071 256.453 151.614 258.39 141.671L262.651 120.364L269.043 98.4767L272.917 75.0395L277.759 49.8591L300.809 49.8591L283.376 137.603C279.502 156.844 272.271 170.757 261.682 179.344C251.094 187.932 237.019 192.225 219.457 192.225ZM225.461 148.644C216.551 148.644 208.61 146.933 201.637 143.511C194.664 140.089 189.176 135.182 185.173 128.79C181.17 122.398 179.168 114.747 179.168 105.837C179.168 97.7019 180.621 90.1801 183.526 83.2716C186.432 76.3631 190.499 70.3263 195.729 65.1611C200.959 59.9959 207.157 55.9605 214.324 53.0551C221.491 50.1497 229.335 48.697 237.858 48.697C245.347 48.697 252.256 50.0205 258.583 52.6677C264.911 55.3149 269.947 59.5762 273.692 65.4516C277.436 71.327 279.18 79.0426 278.921 88.5982C278.663 99.9617 276.403 110.195 272.142 119.299C267.881 128.403 261.812 135.569 253.935 140.799C246.058 146.029 236.567 148.644 225.461 148.644ZM230.885 128.112C237.858 128.112 243.992 126.595 249.286 123.56C254.58 120.526 258.745 116.329 261.779 110.97C264.814 105.611 266.331 99.5743 266.331 92.8595C266.331 85.4991 263.942 79.7205 259.164 75.5238C254.387 71.327 247.736 69.2287 239.214 69.2287C232.241 69.2287 226.107 70.746 220.813 73.7805C215.518 76.8151 211.322 80.9795 208.223 86.2739C205.123 91.5682 203.574 97.6373 203.574 104.481C203.574 111.842 205.995 117.62 210.837 121.817C215.68 126.014 222.362 128.112 230.885 128.112Z"/>
<path d="M388.94 48.697C397.85 48.697 405.372 50.5048 411.506 54.1204C417.64 57.7361 421.998 63.0627 424.58 70.1003C427.163 77.1379 427.421 85.7573 425.355 95.9586L413.927 153.292L389.715 153.292L400.949 96.5397C402.628 88.1463 401.853 81.5929 398.625 76.8796C395.397 72.1664 389.521 69.8098 380.999 69.8098C372.089 69.8098 364.728 72.2632 358.918 77.1702C353.107 82.0771 349.168 89.5667 347.102 99.6388L336.255 153.292L312.043 153.292L340.71 9.5705L364.922 9.5705L350.976 79.3008L345.94 70.0035C350.847 62.643 357.013 57.2518 364.438 53.8299C371.863 50.4079 380.03 48.697 388.94 48.697Z"/>
<path d="M483.464 154.648C476.749 154.648 470.97 153.196 466.128 150.29C461.286 147.385 457.799 143.253 455.668 137.894C453.538 132.535 453.183 126.175 454.603 118.815L473.004 27.0031L497.216 27.0031L478.815 118.621C478.04 123.399 478.557 127.273 480.365 130.243C482.172 133.213 485.594 134.698 490.63 134.698C492.955 134.698 495.311 134.343 497.7 133.632C500.089 132.922 502.252 131.921 504.189 130.63L508.45 148.45C504.835 150.774 500.832 152.389 496.441 153.292C492.051 154.196 487.725 154.648 483.464 154.648ZM447.824 69.2287L451.504 49.8591L520.459 49.8591L516.586 69.2287L447.824 69.2287Z"/>
<path d="M567.527 80.0756L635.127 80.0756L630.866 101.382L563.266 101.382L567.527 80.0756ZM554.937 153.292L529.757 153.292L556.874 17.7057L655.853 17.7057L651.591 38.8185L577.793 38.8185L554.937 153.292Z"/>
<path d="M699.047 154.648C688.974 154.648 680.161 152.744 672.607 148.934C665.053 145.125 659.21 139.831 655.078 133.051C650.946 126.272 648.88 118.298 648.88 109.13C648.88 97.5082 651.527 87.1455 656.821 78.0418C662.115 68.9381 669.379 61.7714 678.612 56.5416C687.845 51.3119 698.401 48.697 710.281 48.697C720.482 48.697 729.36 50.5371 736.914 54.2173C744.468 57.8975 750.311 63.1273 754.444 69.9066C758.576 76.6859 760.642 84.7243 760.642 94.0217C760.642 105.514 757.995 115.845 752.7 125.013C747.406 134.181 740.142 141.412 730.91 146.707C721.677 152.001 711.056 154.648 699.047 154.648ZM700.596 133.923C707.569 133.923 713.703 132.277 718.997 128.984C724.292 125.691 728.488 121.139 731.587 115.328C734.687 109.517 736.236 102.803 736.236 95.1839C736.236 87.1778 733.847 80.8504 729.069 76.2017C724.292 71.553 717.577 69.2287 708.925 69.2287C702.081 69.2287 695.98 70.8751 690.621 74.1679C685.262 77.4607 681.033 82.0126 677.934 87.8234C674.835 93.6343 673.285 100.349 673.285 107.968C673.285 116.103 675.674 122.463 680.452 127.047C685.23 131.631 691.944 133.923 700.596 133.923Z"/>
<path d="M823.98 154.648C813.908 154.648 805.095 152.744 797.541 148.934C789.987 145.125 784.143 139.831 780.011 133.051C775.879 126.272 773.813 118.298 773.813 109.13C773.813 97.5082 776.46 87.1455 781.755 78.0418C787.049 68.9381 794.312 61.7714 803.545 56.5416C812.778 51.3119 823.334 48.697 835.214 48.697C845.416 48.697 854.293 50.5371 861.848 54.2173C869.402 57.8975 875.245 63.1273 879.377 69.9066C883.509 76.6859 885.575 84.7243 885.575 94.0217C885.575 105.514 882.928 115.845 877.634 125.013C872.339 134.181 865.076 141.412 855.843 146.707C846.61 152.001 835.989 154.648 823.98 154.648ZM825.53 133.923C832.503 133.923 838.636 132.277 843.931 128.984C849.225 125.691 853.422 121.139 856.521 115.328C859.62 109.517 861.17 102.803 861.17 95.1839C861.17 87.1778 858.781 80.8504 854.003 76.2017C849.225 71.553 842.51 69.2287 833.859 69.2287C827.015 69.2287 820.913 70.8751 815.554 74.1679C810.195 77.4607 805.966 82.0126 802.867 87.8234C799.768 93.6343 798.219 100.349 798.219 107.968C798.219 116.103 800.608 122.463 805.385 127.047C810.163 131.631 816.878 133.923 825.53 133.923Z"/>
<path d="M936.517 154.648C929.802 154.648 924.024 153.196 919.181 150.29C914.339 147.385 910.853 143.253 908.722 137.894C906.591 132.535 906.236 126.175 907.657 118.815L926.058 27.0031L950.27 27.0031L931.868 118.621C931.094 123.399 931.61 127.273 933.418 130.243C935.226 133.213 938.648 134.698 943.684 134.698C946.008 134.698 948.365 134.343 950.754 133.632C953.143 132.922 955.306 131.921 957.243 130.63L961.504 148.45C957.888 150.774 953.885 152.389 949.495 153.292C945.104 154.196 940.778 154.648 936.517 154.648ZM900.877 69.2287L904.557 49.8591L973.513 49.8591L969.639 69.2287L900.877 69.2287Z"/>
</g>
</g>
</svg>
